<?xml version="1.0" standalone="no"?><!-- Generator: Gravit.io --><svg xmlns="http://www.w3.org/2000/svg" xmlns:xlink="http://www.w3.org/1999/xlink" style="isolation:isolate" viewBox="0 0 128 128" width="128" height="128"><defs><clipPath id="_clipPath_rKT6RfrYmCnl23JSewUDFxSSA6xruC9y"><rect width="128" height="128"/></clipPath></defs><g clip-path="url(#_clipPath_rKT6RfrYmCnl23JSewUDFxSSA6xruC9y)"><g style="isolation:isolate" id="Layer 0"><path d=" M 64 92.744 C 50.054 101.902 36.733 110.651 29.521 115.386 C 28.377 116.136 26.975 116.127 25.837 115.368 C 24.699 114.605 24 113.204 24 111.686 C 24 91.688 24 36.314 24 16.316 C 24 14.8 24.701 13.397 25.837 12.633 C 26.975 11.87 28.377 11.866 29.521 12.615 C 36.733 17.352 50.054 26.1 64 35.258 L 64 92.744 Z " fill="rgb(93,182,255)" vector-effect="non-scaling-stroke" stroke-width="1" stroke="rgb(93,182,255)" stroke-linejoin="round" stroke-linecap="butt" stroke-miterlimit="1.414"/><path d=" M 64 92.744 C 65.329 91.871 94.84 72.491 102.134 67.702 C 102.753 67.296 103.245 66.7 103.568 66 C 103.847 65.395 104 64.711 104 64.004 C 104 63.544 103.935 63.095 103.814 62.67 C 103.674 62.182 103.458 61.727 103.178 61.328 C 102.893 60.922 102.541 60.573 102.134 60.306 L 102.134 60.304 C 94.846 55.516 65.337 36.137 64 35.258 L 64 92.744 Z " fill="rgb(93,182,255)" vector-effect="non-scaling-stroke" stroke-width="1" stroke="rgb(93,182,255)" stroke-linejoin="round" stroke-linecap="butt" stroke-miterlimit="1.414"/></g></g></svg>