<?xml version="1.0" standalone="no"?><!-- Generator: Gravit.io --><svg xmlns="http://www.w3.org/2000/svg" xmlns:xlink="http://www.w3.org/1999/xlink" style="isolation:isolate" viewBox="0 0 128 128" width="128" height="128"><defs><clipPath id="_clipPath_KyiQSCZc7ch8kB6kSFCWIzWO7XD9M01y"><rect width="128" height="128"/></clipPath></defs><g clip-path="url(#_clipPath_KyiQSCZc7ch8kB6kSFCWIzWO7XD9M01y)"><g style="isolation:isolate" id="Layer 0"><path d=" M 64.005 112 C 30.113 112 68.041 112 24 112 C 22.063 112 20.031 112.031 18 110 C 16 108 15.989 106.015 16 104 C 16 84.002 16 43.998 16 24 C 16 22.036 15.995 20.005 18 18 C 20.002 15.998 22.005 16.019 24 16.019 C 52.354 15.961 27.922 16.057 64.005 16.019 L 64.005 112 Z " fill="rgb(93,182,255)" vector-effect="non-scaling-stroke" stroke-width="1" stroke="rgb(93,182,255)" stroke-linejoin="round" stroke-linecap="butt" stroke-miterlimit="1.414"/><path d=" M 64.005 112 C 82.563 112 93.663 112 104 112 C 106.019 112 107.98 112.02 110 110 C 111.999 108.001 112 106.008 112 104 C 112 103.518 112 34.459 112 24 C 112 22.068 112.124 20.083 110.02 17.98 C 108.076 16.036 105.983 16 104 16 C 91.358 16 86.811 16.019 64.005 16.019 L 64.005 112 Z " fill="rgb(93,182,255)" vector-effect="non-scaling-stroke" stroke-width="1" stroke="rgb(93,182,255)" stroke-linejoin="round" stroke-linecap="butt" stroke-miterlimit="1.414"/></g></g></svg>